<svg width="23" height="26" viewBox="0 0 23 26" fill="none" xmlns="http://www.w3.org/2000/svg">
<g filter="url(#filter0_d_1_236)">
<path d="M17.0156 19.0847C15.9333 20.1339 14.7516 19.9682 13.614 19.4712C12.4102 18.9632 11.3057 18.9411 10.0356 19.4712C8.44523 20.156 7.60585 19.9572 6.65604 19.0847C1.26639 13.5293 2.06159 5.06936 8.18016 4.76012C9.67115 4.83743 10.7093 5.5774 11.5818 5.64367C12.8851 5.3786 14.1331 4.61654 15.5247 4.71594C17.1924 4.84847 18.4514 5.51113 19.2797 6.70393C15.8339 8.76922 16.6512 13.3085 19.8099 14.5786C19.1803 16.2352 18.3631 17.8808 17.0046 19.0957L17.0156 19.0847ZM11.4714 4.69385C11.3057 2.23096 13.3047 0.198798 15.602 0C15.9223 2.84944 13.0176 4.96996 11.4714 4.69385Z" fill="white"/>
</g>
<defs>
<filter id="filter0_d_1_236" x="-1.9069e-05" y="0" width="22.8687" height="26" filterUnits="userSpaceOnUse" color-interpolation-filters="sRGB">
<feFlood flood-opacity="0" result="BackgroundImageFix"/>
<feColorMatrix in="SourceAlpha" type="matrix" values="0 0 0 0 0 0 0 0 0 0 0 0 0 0 0 0 0 0 127 0" result="hardAlpha"/>
<feOffset dy="2.98305"/>
<feGaussianBlur stdDeviation="1.49153"/>
<feComposite in2="hardAlpha" operator="out"/>
<feColorMatrix type="matrix" values="0 0 0 0 0 0 0 0 0 0 0 0 0 0 0 0 0 0 0.09 0"/>
<feBlend mode="normal" in2="BackgroundImageFix" result="effect1_dropShadow_1_236"/>
<feBlend mode="normal" in="SourceGraphic" in2="effect1_dropShadow_1_236" result="shape"/>
</filter>
</defs>
</svg>
